<svg version="1.1" id="Layer_1" xmlns="http://www.w3.org/2000/svg" xmlns:xlink="http://www.w3.org/1999/xlink" x="0px" y="0px"
	 width="100%" viewBox="0 0 499 499" enable-background="new 0 0 499 499" xml:space="preserve">
<path fill="#F7F7F7" opacity="1.000000" stroke="none" 
	d="
M249.000000,500.000000 
	C166.000015,500.000000 83.500038,500.000000 1.000044,500.000000 
	C1.000030,333.666718 1.000030,167.333450 1.000015,1.000134 
	C167.333237,1.000089 333.666473,1.000089 499.999756,1.000045 
	C499.999847,167.333191 499.999847,333.666382 499.999939,499.999786 
	C416.500000,500.000000 333.000000,500.000000 249.000000,500.000000 
M110.203003,196.376389 
	C109.554024,198.951035 108.796921,201.503952 108.274529,204.104034 
	C105.831749,216.262527 104.998314,228.423218 107.940727,240.661499 
	C113.334808,263.096924 130.944061,274.818024 156.552933,273.275635 
	C156.701782,273.919006 156.956390,274.557892 156.984024,275.206451 
	C157.735352,292.840240 163.035522,309.044922 172.567047,323.828857 
	C174.407333,326.683258 173.493942,328.715973 171.521439,331.182983 
	C171.355606,331.480377 171.189774,331.777740 170.449051,332.341064 
	C169.597504,333.545349 168.745972,334.749603 167.298843,336.263489 
	C165.421661,338.760956 163.376770,341.150970 161.696014,343.774261 
	C154.024002,355.748566 146.454254,367.788422 138.314804,380.294739 
	C137.382187,383.602966 133.587189,387.538696 137.563660,390.228363 
	C149.050934,397.998291 161.029160,405.042419 173.280884,412.858978 
	C187.146149,419.756531 201.708069,424.487762 217.554840,427.480652 
	C233.944107,430.739136 250.487045,431.429993 267.067017,429.751678 
	C274.420319,429.007324 281.668976,427.229736 289.783081,425.964844 
	C295.669617,424.392365 301.711548,423.240845 307.403198,421.140320 
	C314.441742,418.542755 321.189545,415.157349 328.809448,412.054138 
	C340.191925,405.019165 351.561432,397.963074 362.964539,390.961670 
	C366.558899,388.754700 367.203308,385.980591 365.558563,382.117920 
	C357.275726,362.665863 347.796875,343.872772 335.059204,326.910126 
	C333.047638,324.231354 333.041779,322.282471 334.257629,319.293243 
	C337.937012,310.247589 341.231567,301.041443 344.511108,291.839020 
	C345.888306,287.974640 346.851135,283.962585 348.761627,280.191315 
	C372.701630,286.898132 395.200287,275.855896 402.001892,253.689621 
	C406.238831,239.881683 405.738342,225.892532 402.033936,211.204483 
	C392.601837,164.353195 341.941132,161.555069 315.195038,179.902420 
	C309.873779,177.316147 304.798889,173.663162 299.180023,172.365555 
	C287.464142,169.659943 275.526154,167.314774 263.560455,166.429840 
	C244.485046,165.019073 225.436172,165.898666 207.242142,173.050095 
	C205.281250,173.820877 203.184158,174.245132 200.726898,174.301407 
	C186.449783,163.619293 170.803726,158.563828 152.680984,160.804428 
	C131.437302,163.430862 116.645012,175.263733 110.203003,196.376389 
z"/>
<path fill="#A8ABB6" opacity="1.000000" stroke="none" 
	d="
M348.002380,280.017670 
	C346.851135,283.962585 345.888306,287.974640 344.511108,291.839020 
	C341.231567,301.041443 337.937012,310.247589 334.257629,319.293243 
	C333.041779,322.282471 333.047638,324.231354 335.059204,326.910126 
	C347.796875,343.872772 357.275726,362.665863 365.558563,382.117920 
	C367.203308,385.980591 366.558899,388.754700 362.964539,390.961670 
	C351.561432,397.963074 340.191925,405.019165 328.411438,411.674286 
	C322.377502,394.811310 317.083710,378.200317 310.987823,361.889069 
	C306.776245,350.619904 306.280975,350.804993 296.624146,357.953094 
	C292.825317,358.968689 289.414001,359.969635 285.964478,360.624023 
	C284.977600,358.730530 284.128418,357.111053 283.062866,355.649292 
	C278.701233,349.665894 274.273560,343.730591 269.895996,337.442261 
	C267.607666,335.421631 265.293518,333.736298 262.977478,331.680664 
	C259.895203,327.525635 256.814819,323.740906 253.805084,319.609161 
	C255.589264,318.176910 257.302856,317.091644 259.392395,316.003174 
	C275.031250,308.980103 290.338196,302.053314 305.521729,294.865662 
	C308.747253,293.338776 312.185150,291.406586 314.391693,288.727570 
	C324.368835,276.613953 333.902893,264.136230 343.710968,251.881256 
	C344.716339,250.625107 346.485077,249.979919 347.923431,249.516113 
	C347.965637,259.993195 347.984009,270.005432 348.002380,280.017670 
z"/>
<path fill="#A9ABB7" opacity="1.000000" stroke="none" 
	d="
M201.150253,174.830124 
	C203.184158,174.245132 205.281250,173.820877 207.242142,173.050095 
	C225.436172,165.898666 244.485046,165.019073 263.560455,166.429840 
	C275.526154,167.314774 287.464142,169.659943 299.180023,172.365555 
	C304.798889,173.663162 309.873779,177.316147 315.728943,180.210999 
	C318.516418,182.679184 320.770020,184.838791 322.980774,187.346771 
	C316.963470,192.294159 310.935028,196.825104 305.026337,201.507141 
	C294.531342,209.823318 281.378998,215.055862 274.659729,227.778976 
	C273.129517,230.676422 271.108917,233.310776 269.405701,236.121780 
	C264.876068,243.597321 260.396454,251.103180 255.489502,258.502869 
	C252.054901,258.921814 249.027771,259.434875 246.021301,259.573730 
	C243.298111,253.347595 240.590668,247.478271 237.803024,241.647293 
	C231.629456,228.733948 224.766357,216.503311 213.081039,207.338440 
	C204.493637,200.603241 196.972351,192.508728 189.018158,184.671082 
	C193.090317,181.158173 197.120285,177.994156 201.150253,174.830124 
z"/>
<path fill="#696E77" opacity="1.000000" stroke="none" 
	d="
M217.008942,426.921082 
	C201.708069,424.487762 187.146149,419.756531 173.104111,412.150146 
	C173.022873,402.224304 176.774460,394.075806 180.653671,386.043915 
	C183.346130,380.469208 186.631226,375.180695 190.121918,368.920807 
	C187.818542,369.209106 186.234207,369.249573 184.731277,369.620239 
	C171.425400,372.901550 158.145294,376.288300 144.825485,379.511200 
	C142.920761,379.972107 140.844589,379.724457 138.847748,379.804718 
	C146.454254,367.788422 154.024002,355.748566 161.696014,343.774261 
	C163.376770,341.150970 165.421661,338.760956 167.982788,336.114838 
	C169.452484,334.669189 170.238220,333.372162 171.023956,332.075134 
	C171.189774,331.777740 171.355606,331.480377 172.146057,331.105957 
	C181.853485,338.702850 190.936279,346.376740 200.012650,354.412476 
	C197.391937,358.888641 194.777664,363.002930 191.842896,367.621613 
	C197.017822,366.251343 201.244675,365.058289 205.509796,364.023041 
	C209.987488,362.936188 214.501877,362.000519 219.327652,361.000305 
	C220.091629,361.005371 220.528183,361.008942 221.364960,361.024567 
	C225.635803,361.910736 229.477280,362.953735 233.382477,363.627197 
	C245.168549,365.659790 256.994904,367.156921 268.928070,365.417603 
	C265.453308,370.154449 262.230377,374.742340 258.516785,378.891022 
	C247.891479,390.761230 236.964752,402.362244 226.379013,414.266937 
	C222.905304,418.173462 220.112900,422.685791 217.008942,426.921082 
z"/>
<path fill="#6D707D" opacity="1.000000" stroke="none" 
	d="
M220.964737,361.012512 
	C220.528183,361.008942 220.091629,361.005371 219.121368,360.720093 
	C213.640427,358.120972 208.736237,355.701874 203.709030,353.573395 
	C202.723145,353.156006 201.261383,353.862488 200.019073,354.050659 
	C190.936279,346.376740 181.853485,338.702850 172.392944,331.016205 
	C173.493942,328.715973 174.407333,326.683258 172.567047,323.828857 
	C163.035522,309.044922 157.735352,292.840240 156.984024,275.206451 
	C156.956390,274.557892 156.701782,273.919006 156.296448,272.480530 
	C156.362671,264.741089 156.610733,257.791626 157.091019,250.858231 
	C157.160599,249.853745 158.343658,248.926392 159.305939,248.127884 
	C168.476044,259.424805 177.235428,270.652954 186.286667,281.640686 
	C189.723160,285.812378 193.192093,290.619019 197.755615,293.074158 
	C210.435593,299.895782 223.670364,305.694641 236.761124,311.734619 
	C238.641190,312.602081 240.936279,312.570068 243.333435,313.118652 
	C245.463928,314.814911 247.366028,316.276398 249.111481,317.905701 
	C250.120804,318.847870 250.877655,320.060516 251.422180,321.147949 
	C248.398148,324.783417 245.700119,328.422363 243.000122,332.029419 
	C242.998184,331.997528 243.061798,332.003906 242.817703,331.991302 
	C242.398117,332.346771 242.222610,332.714874 241.816772,333.341797 
	C239.396500,335.492828 237.206558,337.384979 234.992310,339.616638 
	C232.889542,342.893890 230.734756,345.781189 228.751266,348.781708 
	C226.086487,352.812836 223.554016,356.931458 220.964737,361.012512 
z"/>
<path fill="#7E828A" opacity="1.000000" stroke="none" 
	d="
M217.281891,427.200867 
	C220.112900,422.685791 222.905304,418.173462 226.379013,414.266937 
	C236.964752,402.362244 247.891479,390.761230 258.516785,378.891022 
	C262.230377,374.742340 265.453308,370.154449 269.340698,365.375732 
	C275.188293,363.646423 280.595520,362.308502 286.002716,360.970581 
	C289.414001,359.969635 292.825317,358.968689 296.605774,358.381470 
	C296.321106,364.846252 295.732971,370.905304 295.000732,376.946899 
	C293.021637,393.275635 290.981232,409.596924 288.965149,425.921173 
	C281.668976,427.229736 274.420319,429.007324 267.067017,429.751678 
	C250.487045,431.429993 233.944107,430.739136 217.281891,427.200867 
z"/>
<path fill="#7E7E8A" opacity="1.000000" stroke="none" 
	d="
M348.382019,280.104492 
	C347.984009,270.005432 347.965637,259.993195 347.953918,249.182175 
	C347.938507,247.716003 347.916473,247.048615 348.279602,246.271545 
	C363.871796,241.798294 369.672729,236.400635 368.226624,221.928238 
	C375.099060,219.562424 381.578613,217.180573 388.178589,215.199814 
	C392.705139,213.841309 397.399048,213.040604 402.018158,211.990570 
	C405.738342,225.892532 406.238831,239.881683 402.001892,253.689621 
	C395.200287,275.855896 372.701630,286.898132 348.382019,280.104492 
z"/>
<path fill="#7E7E8A" opacity="1.000000" stroke="none" 
	d="
M159.011444,247.963348 
	C158.343658,248.926392 157.160599,249.853745 157.091019,250.858231 
	C156.610733,257.791626 156.362671,264.741089 156.052765,272.117737 
	C130.944061,274.818024 113.334808,263.096924 107.940727,240.661499 
	C104.998314,228.423218 105.831749,216.262527 108.274529,204.104034 
	C108.796921,201.503952 109.554024,198.951035 110.840942,196.186005 
	C122.340233,200.680923 133.201584,205.366257 144.052643,210.374161 
	C144.019958,211.127411 143.997604,211.558060 143.806671,212.362991 
	C141.030258,224.330078 147.535187,233.594986 159.995880,236.467682 
	C159.659195,240.575546 159.335327,244.269440 159.011444,247.963348 
z"/>
<path fill="#9494A2" opacity="1.000000" stroke="none" 
	d="
M144.062943,210.051575 
	C133.201584,205.366257 122.340233,200.680923 111.094711,195.912140 
	C116.645012,175.263733 131.437302,163.430862 152.680984,160.804428 
	C170.803726,158.563828 186.449783,163.619293 200.938568,174.565765 
	C197.120285,177.994156 193.090317,181.158173 188.652740,184.669800 
	C187.096619,185.797714 185.740463,186.390015 184.834808,187.390213 
	C180.425415,192.259888 176.136520,197.238647 171.420044,202.127808 
	C155.924805,197.765869 151.018173,199.216599 144.062943,210.051575 
z"/>
<path fill="#9494A2" opacity="1.000000" stroke="none" 
	d="
M402.026062,211.597519 
	C397.399048,213.040604 392.705139,213.841309 388.178589,215.199814 
	C381.578613,217.180573 375.099060,219.562424 368.044861,221.879761 
	C367.521576,221.986237 367.151764,221.910843 367.109253,221.546951 
	C364.386444,213.068069 360.041626,209.176529 352.229095,209.185760 
	C347.875946,209.190887 343.524414,210.548920 339.012878,210.969299 
	C337.607025,208.511032 336.481262,206.298096 335.091034,204.266068 
	C331.126160,198.470749 327.053711,192.749054 323.023590,186.998383 
	C320.770020,184.838791 318.516418,182.679184 316.094971,180.211273 
	C341.941132,161.555069 392.601837,164.353195 402.026062,211.597519 
z"/>
<path fill="#93979F" opacity="1.000000" stroke="none" 
	d="
M289.374115,425.942993 
	C290.981232,409.596924 293.021637,393.275635 295.000732,376.946899 
	C295.732971,370.905304 296.321106,364.846252 296.993347,358.366821 
	C306.280975,350.804993 306.776245,350.619904 310.987823,361.889069 
	C317.083710,378.200317 322.377502,394.811310 328.038208,411.703369 
	C321.189545,415.157349 314.441742,418.542755 307.403198,421.140320 
	C301.711548,423.240845 295.669617,424.392365 289.374115,425.942993 
z"/>
<path fill="#7E848C" opacity="1.000000" stroke="none" 
	d="
M138.581284,380.049744 
	C140.844589,379.724457 142.920761,379.972107 144.825485,379.511200 
	C158.145294,376.288300 171.425400,372.901550 184.731277,369.620239 
	C186.234207,369.249573 187.818542,369.209106 190.121918,368.920807 
	C186.631226,375.180695 183.346130,380.469208 180.653671,386.043915 
	C176.774460,394.075806 173.022873,402.224304 172.870972,411.906433 
	C161.029160,405.042419 149.050934,397.998291 137.563660,390.228363 
	C133.587189,387.538696 137.382187,383.602966 138.581284,380.049744 
z"/>
<path fill="#6D707D" opacity="1.000000" stroke="none" 
	d="
M170.736511,332.208099 
	C170.238220,333.372162 169.452484,334.669189 168.280594,335.960022 
	C168.745972,334.749603 169.597504,333.545349 170.736511,332.208099 
z"/>
<path fill="#999BA8" opacity="1.000000" stroke="none" 
	d="
M322.980774,187.346771 
	C327.053711,192.749054 331.126160,198.470749 335.091034,204.266068 
	C336.481262,206.298096 337.607025,208.511032 338.994995,211.320129 
	C341.001007,217.671341 342.865631,223.343811 344.755829,229.448761 
	C345.819061,235.381256 346.856720,240.881256 347.894409,246.381241 
	C347.916473,247.048615 347.938507,247.716003 347.930084,248.717316 
	C346.485077,249.979919 344.716339,250.625107 343.710968,251.881256 
	C333.902893,264.136230 324.368835,276.613953 314.391693,288.727570 
	C312.185150,291.406586 308.747253,293.338776 305.521729,294.865662 
	C290.338196,302.053314 275.031250,308.980103 259.530365,315.696350 
	C268.292755,304.937195 269.011810,292.529816 267.301666,279.747253 
	C266.183533,271.389587 263.637115,263.518646 255.896973,258.596985 
	C260.396454,251.103180 264.876068,243.597321 269.405701,236.121780 
	C271.108917,233.310776 273.129517,230.676422 274.659729,227.778976 
	C281.378998,215.055862 294.531342,209.823318 305.026337,201.507141 
	C310.935028,196.825104 316.963470,192.294159 322.980774,187.346771 
M296.692902,277.934662 
	C298.505951,283.462219 301.458557,285.764496 305.271759,284.623932 
	C308.643280,283.615509 311.147705,279.161957 310.679108,275.008209 
	C310.216278,270.905426 306.832397,267.080322 303.483215,267.422272 
	C299.269745,267.852417 297.271851,270.757263 296.691528,274.754974 
	C296.574463,275.561279 296.569855,276.383972 296.692902,277.934662 
z"/>
<path fill="#343A48" opacity="1.000000" stroke="none" 
	d="
M255.489502,258.502869 
	C263.637115,263.518646 266.183533,271.389587 267.301666,279.747253 
	C269.011810,292.529816 268.292755,304.937195 259.154419,315.699585 
	C257.302856,317.091644 255.589264,318.176910 253.618683,319.954803 
	C253.480728,323.156799 253.599777,325.666138 253.185226,328.112457 
	C252.297714,327.993866 251.943817,327.938354 251.675201,327.468567 
	C251.756378,325.086670 251.752258,323.119080 251.748138,321.151459 
	C250.877655,320.060516 250.120804,318.847870 249.111481,317.905701 
	C247.366028,316.276398 245.463928,314.814911 243.188843,312.800232 
	C233.887146,294.243591 233.785477,276.713531 246.000641,259.947937 
	C249.027771,259.434875 252.054901,258.921814 255.489502,258.502869 
z"/>
<path fill="#999BA8" opacity="1.000000" stroke="none" 
	d="
M285.964478,360.624023 
	C280.595520,362.308502 275.188293,363.646423 269.368469,365.026245 
	C256.994904,367.156921 245.168549,365.659790 233.382477,363.627197 
	C229.477280,362.953735 225.635803,361.910736 221.364960,361.024597 
	C223.554016,356.931458 226.086487,352.812836 228.751266,348.781708 
	C230.734756,345.781189 232.889542,342.893890 235.300995,339.419617 
	C240.119705,336.380066 244.481720,333.601501 249.150116,331.505219 
	C251.107803,330.626099 253.977432,330.491913 255.973740,331.241180 
	C260.750671,333.034180 265.255493,335.552246 269.870178,337.777588 
	C274.273560,343.730591 278.701233,349.665894 283.062866,355.649292 
	C284.128418,357.111053 284.977600,358.730530 285.964478,360.624023 
z"/>
<path fill="#444D5E" opacity="1.000000" stroke="none" 
	d="
M269.895996,337.442261 
	C265.255493,335.552246 260.750671,333.034180 255.973740,331.241180 
	C253.977432,330.491913 251.107803,330.626099 249.150116,331.505219 
	C244.481720,333.601501 240.119705,336.380066 235.325287,339.080109 
	C237.206558,337.384979 239.396500,335.492828 242.028030,333.205933 
	C242.667007,332.542145 242.864410,332.273010 243.061798,332.003906 
	C243.061798,332.003906 242.998184,331.997528 243.345001,331.946747 
	C246.324524,330.558258 248.957214,329.220520 251.589920,327.882812 
	C251.943817,327.938354 252.297714,327.993866 253.411041,328.262024 
	C257.106781,329.666748 260.043091,330.858856 262.979370,332.050964 
	C265.293518,333.736298 267.607666,335.421631 269.895996,337.442261 
z"/>
<path fill="#9494A2" opacity="1.000000" stroke="none" 
	d="
M262.977478,331.680664 
	C260.043091,330.858856 257.106781,329.666748 253.944672,328.325073 
	C253.599777,325.666138 253.480728,323.156799 253.548080,320.301788 
	C256.814819,323.740906 259.895203,327.525635 262.977478,331.680664 
z"/>
<path fill="#818390" opacity="1.000000" stroke="none" 
	d="
M246.021301,259.573730 
	C233.785477,276.713531 233.887146,294.243591 242.894714,312.635895 
	C240.936279,312.570068 238.641190,312.602081 236.761124,311.734619 
	C223.670364,305.694641 210.435593,299.895782 197.755615,293.074158 
	C193.192093,290.619019 189.723160,285.812378 186.286667,281.640686 
	C177.235428,270.652954 168.476044,259.424805 159.305939,248.127884 
	C159.335327,244.269440 159.659195,240.575546 160.232056,236.169662 
	C161.719315,230.320786 162.957596,225.183884 164.477646,219.848541 
	C166.103882,216.853104 167.595764,214.115433 168.751968,211.242645 
	C169.940308,208.290054 170.800949,205.205582 171.804993,202.178802 
	C176.136520,197.238647 180.425415,192.259888 184.834808,187.390213 
	C185.740463,186.390015 187.096619,185.797714 188.610535,185.018707 
	C196.972351,192.508728 204.493637,200.603241 213.081039,207.338440 
	C224.766357,216.503311 231.629456,228.733948 237.803024,241.647293 
	C240.590668,247.478271 243.298111,253.347595 246.021301,259.573730 
M210.710297,273.697754 
	C209.976349,269.252258 208.128052,265.302277 203.056015,265.562103 
	C198.610764,265.789886 196.695145,269.584290 196.411835,273.628754 
	C196.272079,275.623901 197.081802,277.917999 198.100113,279.715240 
	C200.498627,283.948456 206.083710,284.072998 208.739410,279.979340 
	C209.776367,278.380920 210.098282,276.318634 210.710297,273.697754 
z"/>
<path fill="#525B6C" opacity="1.000000" stroke="none" 
	d="
M200.012665,354.412506 
	C201.261383,353.862488 202.723145,353.156006 203.709030,353.573395 
	C208.736237,355.701874 213.640427,358.120972 218.793945,360.718597 
	C214.501877,362.000519 209.987488,362.936188 205.509796,364.023041 
	C201.244675,365.058289 197.017822,366.251343 191.842896,367.621613 
	C194.777664,363.002930 197.391937,358.888641 200.012665,354.412506 
z"/>
<path fill="#999BA8" opacity="1.000000" stroke="none" 
	d="
M251.675201,327.468567 
	C248.957214,329.220520 246.324524,330.558258 243.346954,331.978638 
	C245.700119,328.422363 248.398148,324.783417 251.422165,321.147949 
	C251.752258,323.119080 251.756378,325.086670 251.675201,327.468567 
z"/>
<path fill="#999BA8" opacity="1.000000" stroke="none" 
	d="
M242.817703,331.991302 
	C242.864410,332.273010 242.667007,332.542145 242.258362,332.947113 
	C242.222610,332.714874 242.398117,332.346771 242.817703,331.991302 
z"/>
<path fill="#444D5E" opacity="1.000000" stroke="none" 
	d="
M348.279602,246.271545 
	C346.856720,240.881256 345.819061,235.381256 345.166168,229.439209 
	C352.751221,226.635056 359.951477,224.272949 367.151764,221.910843 
	C367.151764,221.910843 367.521576,221.986237 367.703308,222.034714 
	C369.672729,236.400635 363.871796,241.798294 348.279602,246.271545 
z"/>
<path fill="#525B6C" opacity="1.000000" stroke="none" 
	d="
M171.420044,202.127808 
	C170.800949,205.205582 169.940308,208.290054 168.751968,211.242645 
	C167.595764,214.115433 166.103882,216.853104 164.091293,219.798965 
	C156.940536,217.294785 150.457901,214.641754 143.975250,211.988724 
	C143.997604,211.558060 144.019958,211.127411 144.052643,210.374161 
	C151.018173,199.216599 155.924805,197.765869 171.420044,202.127808 
z"/>
<path fill="#444D5E" opacity="1.000000" stroke="none" 
	d="
M143.806671,212.362991 
	C150.457901,214.641754 156.940536,217.294785 163.809540,219.997406 
	C162.957596,225.183884 161.719315,230.320786 160.244873,235.755707 
	C147.535187,233.594986 141.030258,224.330078 143.806671,212.362991 
z"/>
<path fill="#525B6C" opacity="1.000000" stroke="none" 
	d="
M367.109253,221.546951 
	C359.951477,224.272949 352.751221,226.635056 345.140594,229.006714 
	C342.865631,223.343811 341.001007,217.671341 339.154266,211.648071 
	C343.524414,210.548920 347.875946,209.190887 352.229095,209.185760 
	C360.041626,209.176529 364.386444,213.068069 367.109253,221.546951 
z"/>
<path fill="#2F323F" opacity="1.000000" stroke="none" 
	d="
M296.603149,277.566895 
	C296.569855,276.383972 296.574463,275.561279 296.691528,274.754974 
	C297.271851,270.757263 299.269745,267.852417 303.483215,267.422272 
	C306.832397,267.080322 310.216278,270.905426 310.679108,275.008209 
	C311.147705,279.161957 308.643280,283.615509 305.271759,284.623932 
	C301.458557,285.764496 298.505951,283.462219 296.603149,277.566895 
z"/>
<path fill="#262A37" opacity="1.000000" stroke="none" 
	d="
M210.728088,274.082703 
	C210.098282,276.318634 209.776367,278.380920 208.739410,279.979340 
	C206.083710,284.072998 200.498627,283.948456 198.100113,279.715240 
	C197.081802,277.917999 196.272079,275.623901 196.411835,273.628754 
	C196.695145,269.584290 198.610764,265.789886 203.056015,265.562103 
	C208.128052,265.302277 209.976349,269.252258 210.728088,274.082703 
z"/>
</svg>